<mxfile host="app.diagrams.net" modified="2023-07-05T09:08:04.465Z" agent="Mozilla/5.0 (Macintosh; Intel Mac OS X 10_15_7) AppleWebKit/537.36 (KHTML, like Gecko) Chrome/114.0.0.0 Safari/537.36" version="21.5.2" etag="PcmSwDu1YZnSnfkAT5i4" type="github">
  <diagram name="Page-1" id="nZsEFM8F2S5hYUaiSz_K">
    <mxGraphModel>
      <root>
        <mxCell id="0" />
        <mxCell id="1" parent="0" />
      </root>
    </mxGraphModel>
  </diagram>
</mxfile>
